<svg xmlns="http://www.w3.org/2000/svg" width="1024" height="1024" viewBox="110 110 804 804">
  <defs>
    <!-- Background -->
    <radialGradient id="bgRad" cx="35%" cy="28%" r="85%">
      <stop offset="0" stop-color="#2a1c55"/>
      <stop offset="0.55" stop-color="#0b1020"/>
      <stop offset="1" stop-color="#0b1f19"/>
    </radialGradient>

    <!-- Icon rim -->
    <linearGradient id="rimGrad" x1="0" y1="0" x2="1" y2="1">
      <stop offset="0" stop-color="#5b6ea6" stop-opacity="0.9"/>
      <stop offset="0.45" stop-color="#1f2e58" stop-opacity="0.75"/>
      <stop offset="1" stop-color="#111b37" stop-opacity="0.9"/>
    </linearGradient>

    <!-- "DING" fill -->
    <linearGradient id="dingFill" x1="0" y1="0" x2="1" y2="0">
      <stop offset="0" stop-color="#8c5cff"/>
      <stop offset="0.45" stop-color="#4f7bff"/>
      <stop offset="1" stop-color="#33e6b3"/>
    </linearGradient>

    <linearGradient id="dingStroke" x1="0" y1="0" x2="1" y2="0">
      <stop offset="0" stop-color="#ffe9a8"/>
      <stop offset="0.5" stop-color="#f2c15c"/>
      <stop offset="1" stop-color="#ffd77a"/>
    </linearGradient>

    <!-- Gloss highlight -->
    <linearGradient id="gloss" x1="0" y1="0" x2="0" y2="1">
      <stop offset="0" stop-color="#ffffff" stop-opacity="0.55"/>
      <stop offset="0.5" stop-color="#ffffff" stop-opacity="0.08"/>
      <stop offset="1" stop-color="#ffffff" stop-opacity="0"/>
    </linearGradient>

    <!-- Card face -->
    <linearGradient id="cardFace" x1="0" y1="0" x2="0" y2="1">
      <stop offset="0" stop-color="#ffffff"/>
      <stop offset="1" stop-color="#e9eefc"/>
    </linearGradient>

    <!-- Chip gradient -->
    <radialGradient id="chipRad" cx="35%" cy="30%" r="75%">
      <stop offset="0" stop-color="#ffffff" stop-opacity="0.65"/>
      <stop offset="0.35" stop-color="#ffffff" stop-opacity="0.15"/>
      <stop offset="1" stop-color="#000000" stop-opacity="0.25"/>
    </radialGradient>

    <linearGradient id="chipRing" x1="0" y1="0" x2="1" y2="1">
      <stop offset="0" stop-color="#ff5a7a"/>
      <stop offset="1" stop-color="#ffcc4a"/>
    </linearGradient>

    <!-- Filters -->
    <filter id="drop" x="-20%" y="-20%" width="140%" height="140%">
      <feOffset dx="0" dy="20" />
      <feGaussianBlur stdDeviation="22" result="b"/>
      <feColorMatrix in="b" type="matrix"
        values="0 0 0 0 0
                0 0 0 0 0
                0 0 0 0 0
                0 0 0 .35 0" result="s"/>
      <feMerge>
        <feMergeNode in="s"/>
        <feMergeNode in="SourceGraphic"/>
      </feMerge>
    </filter>

    <filter id="softGlow" x="-25%" y="-25%" width="150%" height="150%">
      <feGaussianBlur stdDeviation="7" result="g"/>
      <feColorMatrix in="g" type="matrix"
        values="0 0 0 0 0.30
                0 0 0 0 0.55
                0 0 0 0 1.00
                0 0 0 .55 0" result="cg"/>
      <feMerge>
        <feMergeNode in="cg"/>
        <feMergeNode in="SourceGraphic"/>
      </feMerge>
    </filter>

    <filter id="textShadow" x="-30%" y="-30%" width="160%" height="160%">
      <feOffset dx="0" dy="18" result="o"/>
      <feGaussianBlur in="o" stdDeviation="14" result="b"/>
      <feColorMatrix in="b" type="matrix"
        values="0 0 0 0 0
                0 0 0 0 0
                0 0 0 0 0
                0 0 0 .55 0" result="s"/>
      <feMerge>
        <feMergeNode in="s"/>
        <feMergeNode in="SourceGraphic"/>
      </feMerge>
    </filter>

    <filter id="innerShadow" x="-20%" y="-20%" width="140%" height="140%">
      <feOffset dx="0" dy="12"/>
      <feGaussianBlur stdDeviation="18" result="offBlur"/>
      <feComposite in="offBlur" in2="SourceAlpha" operator="out" result="inv"/>
      <feColorMatrix in="inv" type="matrix"
        values="0 0 0 0 0
                0 0 0 0 0
                0 0 0 0 0
                0 0 0 .45 0" result="sh"/>
      <feComposite in="sh" in2="SourceGraphic" operator="over"/>
    </filter>

    <filter id="dotGlow" x="-120%" y="-120%" width="340%" height="340%">
      <feGaussianBlur stdDeviation="11" result="b"/>
      <feColorMatrix in="b" type="matrix"
        values="0 0 0 0 0
                0 0 0 0 1
                0 0 0 0 0.6
                0 0 0 .70 0" result="g"/>
      <feMerge>
        <feMergeNode in="g"/>
        <feMergeNode in="SourceGraphic"/>
      </feMerge>
    </filter>

    <filter id="goldGlow" x="-40%" y="-40%" width="180%" height="180%">
      <feGaussianBlur stdDeviation="8" result="b"/>
      <feColorMatrix in="b" type="matrix"
        values="0 0 0 0 1
                0 0 0 0 0.78
                0 0 0 0 0.2
                0 0 0 .85 0" result="g"/>
      <feMerge>
        <feMergeNode in="g"/>
        <feMergeNode in="SourceGraphic"/>
      </feMerge>
    </filter>

    <filter id="dotGlowPurple" x="-120%" y="-120%" width="340%" height="340%">
      <feGaussianBlur stdDeviation="11" result="b"/>
      <feColorMatrix in="b" type="matrix"
        values="0 0 0 0 0.65
                0 0 0 0 0.25
                0 0 0 0 1
                0 0 0 .70 0" result="g"/>
      <feMerge>
        <feMergeNode in="g"/>
        <feMergeNode in="SourceGraphic"/>
      </feMerge>
    </filter>

    <!-- Suit symbols -->
    <path id="heart" d="M12,21 C4,15 2,10 5,7 C7,5 10,6 12,8 C14,6 17,5 19,7 C22,10 20,15 12,21 Z"/>
    <path id="spade" d="M12,2 C6,7 3,10 3,14 C3,18 6,20 9,19 C10.5,18.5 11.5,17.5 12,16.5 C12.5,17.5 13.5,18.5 15,19 C18,20 21,18 21,14 C21,10 18,7 12,2 Z
                        M10,19 C10,22 8,23 8,23 L16,23 C16,23 14,22 14,19 Z"/>
    <g id="club">
      <circle cx="12" cy="6" r="5"/>
      <circle cx="7" cy="13" r="5"/>
      <circle cx="17" cy="13" r="5"/>
      <path d="M10,16 C10,20 8,22 8,22 L16,22 C16,22 14,20 14,16 Z"/>
    </g>
    <path id="diamond" d="M12,2 L22,12 L12,22 L2,12 Z"/>

    <!-- Clip for glossy text highlight -->
    <clipPath id="textClip">
      <text x="512" y="628" text-anchor="middle"
            font-family="Inter, SF Pro Display, -apple-system, system-ui, Segoe UI, Roboto, Helvetica, Arial, sans-serif"
            font-weight="900" font-size="290" letter-spacing="10">
        DING
      </text>
    </clipPath>
  </defs>

  <!-- Base icon -->
  <g filter="url(#drop)">
    <rect x="110" y="110" width="804" height="804" rx="150" fill="url(#bgRad)"/>
    <rect x="155" y="155" width="714" height="714" rx="128"
          fill="rgba(255,255,255,0.03)" filter="url(#innerShadow)"/>
  </g>

  <!-- Decorative sparkles -->
  <g opacity="0.55">
    <circle cx="290" cy="290" r="3" fill="#7fd3ff"/>
    <circle cx="740" cy="270" r="2.5" fill="#a7ffdf"/>
    <circle cx="680" cy="760" r="3" fill="#ffd77a"/>
    <circle cx="270" cy="760" r="2.5" fill="#ff9bd2"/>
    <circle cx="360" cy="230" r="2.5" fill="#a7ffdf"/>
    <circle cx="820" cy="320" r="2.8" fill="#7fd3ff"/>
    <circle cx="590" cy="240" r="2.2" fill="#ff9bd2"/>
    <circle cx="430" cy="805" r="2.6" fill="#ffd77a"/>
    <circle cx="770" cy="805" r="2.4" fill="#a7ffdf"/>
    <circle cx="210" cy="330" r="2.2" fill="#ffd77a"/>
  </g>

  <!-- Cards behind the title -->
  <g filter="url(#drop)" opacity="0.98">
    <!-- Left card -->
    <g transform="translate(0,0) rotate(-14 380 420)">
      <rect x="260" y="260" width="260" height="360" rx="26" fill="url(#cardFace)"/>
      <rect x="272" y="272" width="236" height="336" rx="22" fill="none" stroke="rgba(10,20,45,0.18)" stroke-width="4"/>
      <!-- A ♥ -->
      <text x="290" y="310" font-family="ui-sans-serif, system-ui" font-weight="900" font-size="44" fill="#ff3b6b">A</text>
      <g transform="translate(272 322) scale(2.2)" fill="#ff3b6b">
        <use href="#heart"/>
      </g>
      <g transform="translate(438 552) scale(2.1)" fill="#ff3b6b" opacity="0.9">
        <use href="#heart"/>
      </g>
    </g>

    <!-- Right card -->
    <g transform="translate(0,0) rotate(12 650 420)">
      <rect x="540" y="255" width="260" height="360" rx="26" fill="url(#cardFace)"/>
      <rect x="552" y="267" width="236" height="336" rx="22" fill="none" stroke="rgba(10,20,45,0.18)" stroke-width="4"/>
      <!-- K ♠ -->
      <text x="570" y="305" font-family="ui-sans-serif, system-ui" font-weight="900" font-size="44" fill="#1b2340">K</text>
      <g transform="translate(552 317) scale(2.2)" fill="#1b2340">
        <use href="#spade"/>
      </g>
      <g transform="translate(718 547) scale(2.1)" fill="#1b2340" opacity="0.9">
        <use href="#spade"/>
      </g>
    </g>
  </g>

  <!-- Suit quartet -->
  <g filter="url(#drop)" opacity="0.98">
    <g transform="translate(0,0) rotate(-6 512 830)">
      <g transform="translate(260 788) scale(4.6)" fill="#ff3b6b"><use href="#heart"/></g>
      <g transform="translate(400 760) scale(4.6)" fill="#1b2340"><use href="#spade"/></g>
      <g transform="translate(540 788) scale(4.6)" fill="#33e6b3"><use href="#club"/></g>
      <g transform="translate(680 760) scale(4.6)" fill="#ffd26a"><use href="#diamond"/></g>
    </g>
  </g>

  <!-- Golden outline glow -->
  <text x="512" y="628" text-anchor="middle"
        font-family="Inter, SF Pro Display, -apple-system, system-ui, Segoe UI, Roboto, Helvetica, Arial, sans-serif"
        font-weight="900" font-size="290" letter-spacing="10"
        fill="none" stroke="url(#dingStroke)" stroke-width="36" paint-order="stroke fill"
        filter="url(#goldGlow)" opacity="0.9">
    DING
  </text>

  <!-- Stylized DING (outline + fill + gloss) -->
  <g filter="url(#textShadow)">
    <!-- dark outline -->
    <text x="512" y="628" text-anchor="middle"
          font-family="Inter, SF Pro Display, -apple-system, system-ui, Segoe UI, Roboto, Helvetica, Arial, sans-serif"
          font-weight="900" font-size="290" letter-spacing="10"
          fill="url(#dingFill)" stroke="url(#dingStroke)" stroke-width="26" paint-order="stroke fill">
      DING
    </text>

    <!-- inner stroke to feel "embossed" -->
    <text x="512" y="628" text-anchor="middle"
          font-family="Inter, SF Pro Display, -apple-system, system-ui, Segoe UI, Roboto, Helvetica, Arial, sans-serif"
          font-weight="900" font-size="290" letter-spacing="10"
          fill="none" stroke="rgba(255,255,255,0.28)" stroke-width="10" paint-order="stroke"
          filter="url(#softGlow)">
      DING
    </text>

    <text x="512" y="740" text-anchor="middle"
          font-family="Inter, SF Pro Display, -apple-system, system-ui, Segoe UI, Roboto, Helvetica, Arial, sans-serif"
          font-weight="800" font-size="56" letter-spacing="8"
          fill="rgba(255,255,255,0.9)">
      Online
    </text>
  </g>

  <!-- Gloss band clipped to the text -->
  <g clip-path="url(#textClip)" opacity="0.9">
    <path d="M120,380 C320,300 480,320 700,270 C860,235 960,250 1024,300 L1024,470 C850,430 720,470 520,520 C330,565 220,545 120,520 Z"
          fill="url(#gloss)"/>
  </g>

  <!-- Signature dots -->
  <circle cx="204" cy="392" r="34" fill="#8c5cff" filter="url(#dotGlowPurple)"/>
  <circle cx="820" cy="392" r="34" fill="#2ef3a3" filter="url(#dotGlow)"/>
</svg>
